<?xml version="1.0" encoding="utf-8"?>
<!-- Generator: Adobe Illustrator 26.5.0, SVG Export Plug-In . SVG Version: 6.00 Build 0)  -->
<svg version="1.1" id="Layer_1" xmlns="http://www.w3.org/2000/svg" xmlns:xlink="http://www.w3.org/1999/xlink" x="0px" y="0px"
	 viewBox="0 0 861.7 816.4" style="enable-background:new 0 0 861.7 816.4;" xml:space="preserve">
<style type="text/css">
	.st0{fill:#FAE345;}
</style>
<rect x="68" y="249.4" class="st0" width="113.4" height="45.3"/>
<polygon class="st0" points="612.3,181.4 612.3,249.4 521.6,249.4 521.6,181.4 476.2,181.4 476.2,249.4 340.2,249.4 340.2,294.8 
	408.2,294.8 408.2,317.5 317.5,317.5 317.5,226.8 453.5,226.8 453.5,181.4 204.1,181.4 204.1,317.5 68,317.5 68,362.8 249.4,362.8 
	249.4,226.8 272.1,226.8 272.1,362.8 317.5,362.8 453.5,362.8 453.5,294.8 476.2,294.8 476.2,362.8 521.6,362.8 521.6,294.8 
	612.3,294.8 612.3,362.8 657.6,362.8 657.6,226.8 748.3,226.8 748.3,362.8 793.7,362.8 793.7,226.8 861.7,226.8 861.7,181.4 "/>
<rect x="748.3" y="385.5" class="st0" width="45.3" height="181.4"/>
<polygon class="st0" points="861.7,385.5 816.4,385.5 816.4,589.6 45.4,589.6 45.4,226.8 181.4,226.8 181.4,181.4 0,181.4 0,635 
	861.7,635 "/>
<polygon class="st0" points="124.7,385.5 68,385.5 130.4,476.2 68,566.9 124.7,566.9 158.7,517.5 192.8,566.9 249.4,566.9 
	249.4,566.9 272.1,566.9 272.1,566.9 328.8,566.9 361.2,515.1 396.9,566.9 453.5,566.9 388.2,471.9 413.9,430.9 493.2,430.9 
	544.2,566.9 589.6,566.9 640.6,430.9 680.3,430.9 680.3,566.9 725.7,566.9 725.7,385.5 612.3,385.5 566.9,506.5 521.6,385.5 
	385.5,385.5 358.5,428.7 328.8,385.5 272.1,385.5 331.5,471.9 300.5,521.6 218.3,521.6 187.1,476.2 249.4,385.5 192.8,385.5 
	158.7,435 "/>
</svg>
